<svg xmlns="http://www.w3.org/2000/svg" xmlns:xlink="http://www.w3.org/1999/xlink" width="974pt" height="251pt" viewBox="0 0 974.02 250.78"><g id="graph0" class="graph" transform="scale(1 1) rotate(0) translate(4 246.783)"><title>G</title><g id="a_graph0"><a><polygon fill="#fff" stroke="transparent" points="-4 4 -4 -246.783 970.023 -246.783 970.023 4 -4 4"/></a></g><g id="node1" class="node"><title>Listens</title><polygon fill="none" stroke="#000" points="0 -143.083 0 -242.283 153.613 -242.283 153.613 -143.083 0 -143.083"/><text x="76.806" y="-225.683" fill="#000" font-family="Times,serif" font-size="14" text-anchor="middle">ListenBrainz API</text><polyline fill="none" stroke="#000" points="0 -217.483 153.613 -217.483"/><text x="76.806" y="-200.883" fill="#000" font-family="Times,serif" font-size="14" text-anchor="middle">Spotify Reader</text><polyline fill="none" stroke="#000" points="0 -192.683 153.613 -192.683"/><text x="76.806" y="-176.083" fill="#000" font-family="Times,serif" font-size="14" text-anchor="middle">API Compat</text><polyline fill="none" stroke="#000" points="0 -167.883 153.613 -167.883"/><text x="76.806" y="-151.283" fill="#000" font-family="Times,serif" font-size="14" text-anchor="middle">API Compat Deprecated</text></g><g id="node2" class="node"><title>Playing Now</title><polygon fill="none" stroke="#000" points="277.912 -238.683 190.814 -220.683 277.912 -202.683 365.01 -220.683 277.912 -238.683"/><text x="277.912" y="-216.483" fill="#000" font-family="Times,serif" font-size="14" text-anchor="middle">Playing Now</text></g><g id="edge5" class="edge"><title>Listens-&gt;Playing Now</title><path fill="none" stroke="#000" d="M153.6967,-203.3884C174.1869,-206.2413 196.067,-209.2876 215.6646,-212.0162"/><polygon fill="#000" stroke="#000" points="215.298 -215.499 225.685 -213.411 216.264 -208.566 215.298 -215.499"/></g><g id="node6" class="node"><title>Incoming</title><polygon fill="none" stroke="#000" points="277.912 -184.683 210.012 -166.683 277.912 -148.683 345.811 -166.683 277.912 -184.683"/><text x="277.912" y="-162.483" fill="#000" font-family="Times,serif" font-size="14" text-anchor="middle">Incoming</text></g><g id="edge6" class="edge"><title>Listens-&gt;Incoming</title><path fill="none" stroke="#000" d="M153.6967,-182.7422C176.4713,-179.7978 200.9629,-176.6313 222.129,-173.8949"/><polygon fill="#000" stroke="#000" points="222.762 -177.342 232.23 -172.589 221.864 -170.4 222.762 -177.342"/></g><g id="node3" class="node"><title>Websockets</title><ellipse cx="897.333" cy="-220.683" fill="none" stroke="#000" rx="57.885" ry="18"/><text x="897.333" y="-216.483" fill="#000" font-family="Times,serif" font-size="14" text-anchor="middle">Websockets</text></g><g id="edge1" class="edge"><title>Playing Now-&gt;Websockets</title><path fill="none" stroke="#000" d="M365.0188,-220.683C489.5864,-220.683 716.0271,-220.683 829.1717,-220.683"/><polygon fill="#000" stroke="#000" points="829.431 -224.183 839.431 -220.683 829.431 -217.183 829.431 -224.183"/></g><g id="node4" class="node"><title>Unique</title><polygon fill="none" stroke="#000" points="735.832 -184.683 680.212 -166.683 735.832 -148.683 791.453 -166.683 735.832 -184.683"/><text x="735.832" y="-162.483" fill="#000" font-family="Times,serif" font-size="14" text-anchor="middle">Unique</text></g><g id="edge3" class="edge"><title>Unique-&gt;Websockets</title><path fill="none" stroke="#000" d="M763.2285,-175.8433C786.4132,-183.5954 820.219,-194.8989 848.0874,-204.2171"/><polygon fill="#000" stroke="#000" points="847.076 -207.569 857.67 -207.421 849.296 -200.931 847.076 -207.569"/></g><g id="node5" class="node"><title>MBID Mapper</title><ellipse cx="897.333" cy="-166.683" fill="none" stroke="#000" rx="68.881" ry="18"/><text x="897.333" y="-162.483" fill="#000" font-family="Times,serif" font-size="14" text-anchor="middle">MBID Mapper</text></g><g id="edge2" class="edge"><title>Unique-&gt;MBID Mapper</title><path fill="none" stroke="#000" d="M791.8639,-166.683C800.469,-166.683 809.4885,-166.683 818.4767,-166.683"/><polygon fill="#000" stroke="#000" points="818.588 -170.183 828.588 -166.683 818.587 -163.183 818.588 -170.183"/></g><g id="node7" class="node"><title>MessyBrainz</title><ellipse cx="277.912" cy="-94.683" fill="none" stroke="#000" rx="61.975" ry="18"/><text x="277.912" y="-90.483" fill="#000" font-family="Times,serif" font-size="14" text-anchor="middle">MessyBrainz</text></g><g id="node8" class="node"><title>Timescale Writer</title><ellipse cx="564.691" cy="-114.683" fill="none" stroke="#000" rx="78.162" ry="18"/><text x="564.691" y="-110.483" fill="#000" font-family="Times,serif" font-size="14" text-anchor="middle">Timescale Writer</text></g><g id="edge11" class="edge"><title>Incoming-&gt;Timescale Writer</title><path fill="none" stroke="#000" d="M318.3922,-159.3429C363.6686,-151.1332 437.8774,-137.6774 493.024,-127.6779"/><polygon fill="#000" stroke="#000" points="493.873 -131.081 503.088 -125.853 492.624 -124.194 493.873 -131.081"/></g><g id="edge7" class="edge"><title>MessyBrainz-&gt;Timescale Writer</title><path fill="none" stroke="#000" d="M338.38,-98.9C379.3243,-101.7555 434.012,-105.5694 479.3711,-108.7327"/><polygon fill="#000" stroke="#000" points="479.273 -112.234 489.493 -109.439 479.76 -105.251 479.273 -112.234"/><text x="425.786" y="-110.883" fill="#000" font-family="Times,serif" font-size="14" text-anchor="middle">MSIDs</text></g><g id="node9" class="node"><title>Database</title><ellipse cx="277.912" cy="-22.683" fill="none" stroke="#000" rx="46.345" ry="18"/><text x="277.912" y="-18.483" fill="#000" font-family="Times,serif" font-size="14" text-anchor="middle">Database</text></g><g id="edge14" class="edge"><title>Timescale Writer-&gt;Unique</title><path fill="none" stroke="#000" d="M612.3635,-129.1679C639.0504,-137.2765 671.9002,-147.2577 697.0054,-154.8857"/><polygon fill="#000" stroke="#000" points="696.319 -158.335 706.905 -157.894 698.354 -151.637 696.319 -158.335"/></g><g id="edge9" class="edge"><title>Timescale Writer-&gt;MessyBrainz</title><path fill="none" stroke="#000" d="M528.4123,-98.6897C510.6807,-91.7245 488.8026,-84.3652 468.3603,-80.883 425.6441,-73.6064 376.8986,-77.3582 339.4169,-82.7734"/><polygon fill="#000" stroke="#000" points="338.517 -79.37 329.158 -84.337 339.572 -86.29 338.517 -79.37"/><text x="425.786" y="-84.883" fill="#000" font-family="Times,serif" font-size="14" text-anchor="middle">Metadata</text></g><g id="edge10" class="edge"><title>Timescale Writer-&gt;Database</title><path fill="none" stroke="#000" d="M554.1337,-96.4479C538.8255,-72.0577 507.9186,-29.9118 468.3603,-12.883 422.4819,6.8665 364.5346,-.0653 324.6772,-9.0896"/><polygon fill="#000" stroke="#000" points="323.61 -5.746 314.7 -11.478 325.24 -12.554 323.61 -5.746"/><text x="425.786" y="-17.883" fill="#000" font-family="Times,serif" font-size="14" text-anchor="middle">Insert Listens</text></g><g id="edge8" class="edge"><title>Database-&gt;Timescale Writer</title><path fill="none" stroke="#000" d="M323.8117,-25.8393C363.1968,-29.675 420.935,-38.0152 468.3603,-55.883 491.523,-64.6097 515.2833,-79.0422 533.411,-91.4241"/><polygon fill="#000" stroke="#000" points="531.628 -94.448 541.83 -97.304 535.636 -88.709 531.628 -94.448"/><text x="425.786" y="-59.883" fill="#000" font-family="Times,serif" font-size="14" text-anchor="middle">Unique Listens</text></g></g></svg>